<?xml version="1.0" encoding="UTF-8"?><!DOCTYPE svg PUBLIC "-//W3C//DTD SVG 1.1//EN" "http://www.w3.org/Graphics/SVG/1.1/DTD/svg11.dtd"><svg xmlns="http://www.w3.org/2000/svg" width="1020" height="710" style="display: block; touch-action: none; cursor: -webkit-grab;"><rect fill="#eee" x="0" y="0" width="1020" height="710" style="pointer-events:none"></rect><g transform="matrix(0.9254442093252345,0,0,0.9254442093252345,14.094926591515275,24.312737164574514)" style="pointer-events: none;"><rect fill="white" style="x: -30; y: -40; height: 770px; width: 1090px;" x="0" y="0"></rect><g><defs><linearGradient id="arrowGradient" x1="0%" y1="0%" x2="100%" y2="0%"><stop offset="0%" style="stop-color:#ffffff;stop-opacity:1"></stop><stop offset="40%" style="stop-color:#808080;stop-opacity:1"></stop><stop offset="100%" style="stop-color:#808080;stop-opacity:1"></stop></linearGradient><filter id="ctrlHighlight"><feDropShadow dx="0" dy="0" stdDeviation="3" flood-color="blue"></feDropShadow></filter><linearGradient gradientUnits="objectBoundingBox" id="wardleyGradient" spreadMethod="pad" x1="0%" x2="100%" y1="0%" y2="0%"><stop offset="0%" style="stop-color:rgb(196, 196, 196);stop-opacity:1"></stop><stop offset="0.3" style="stop-color:white;stop-opacity:1"></stop><stop offset="0.7" style="stop-color:white"></stop><stop offset="1" style="stop-color:rgb(196, 196, 196)"></stop></linearGradient><linearGradient spreadMethod="pad" id="accelGradient" x1="0%" y1="64%" x2="76%" y2="0%"><stop offset="0%" style="stop-color:white;stop-opacity:1"></stop><stop offset="100%" style="stop-color:#8c8995;stop-opacity:1"></stop></linearGradient><pattern id="diagonalHatch" patternUnits="userSpaceOnUse" width="4" height="4"><path d="M 3,-1 l 2,2 M 0,0 l 4,4 M -1,3 l 2,2 " stroke="grey" stroke-width="1" opacity=".5"></path></pattern><marker id="arrow" markerWidth="12" markerHeight="12" refX="15" refY="0" viewBox="0 -5 10 10" orient="0"><path d="M0,-5L10,0L0,5" fill="red"></path></marker><marker id="graphArrow" markerWidth="12" markerHeight="12" refX="9" refY="0" viewBox="0 -5 10 10" orient="0"><path d="M0,-5L10,0L0,5" fill="black"></path></marker><marker id="pipelineArrow" markerWidth="5" markerHeight="5" refX="9" refY="0" viewBox="0 -5 10 10" orient="0"><path d="M0,-5L10,0L0,5" fill="black"></path></marker></defs><g id="grid"><rect x="0" width="1030" y="0" height="680" id="fillArea" fill="url(#wardleyGradient)"></rect><text x="0" y="-10" is="custom" id="mapTitle" font-weight="bold" font-size="20px" font-family="&quot;Helvetica Neue&quot;,Helvetica,Arial,sans-serif">Bluetooth SIG: Co-operation Drives Standardization</text><g id="valueChain" transform="translate(0,680) rotate(270)" font-family="&quot;Helvetica Neue&quot;,Helvetica,Arial,sans-serif" font-size="13px"><line x1="0" y1="0" x2="680" y2="0" stroke="black" stroke-width="1" stroke-dasharray="2,2"></line><line x1="-2em" y1="180.25" x2="680" y2="180.25" stroke="#b8b8b8" stroke-dasharray="2,2"></line><line x1="-2em" y1="412" x2="680" y2="412" stroke="#b8b8b8" stroke-dasharray="2,2"></line><line x1="-2em" y1="721" x2="680" y2="721" stroke="#b8b8b8" stroke-dasharray="2,2"></line><text fill="black" x="678" y="-0.4em" text-anchor="end" font-weight="bold">Value Chain</text></g><g id="Evolution" font-family="&quot;Helvetica Neue&quot;,Helvetica,Arial,sans-serif" font-size="13px" font-style="italic" transform="translate(0,680)"><line x1="0" y1="0" x2="1028" y2="0" stroke="black" stroke-width="1" marker-end="url(#graphArrow)"></line><text fill="black" x="10" y="-665" text-anchor="start" font-style="normal" font-size="11px" font-weight="bold">Uncharted</text><text fill="black" x="1020" y="-665" text-anchor="end" font-style="normal" font-size="11px" font-weight="bold">Industrialised</text><text fill="black" x="0" y="1em" text-anchor="start">Genesis</text><text fill="black" x="0" y="2em" text-anchor="start"></text><text fill="black" x="187.25" y="1em" text-anchor="start">Custom-Built</text><text fill="black" x="187.25" y="2em" text-anchor="start"></text><text fill="black" x="419" y="1em" text-anchor="start">Product</text><text fill="black" x="419" y="2em" text-anchor="start">(+rental)</text><text fill="black" x="728" y="1em" text-anchor="start">Commodity</text><text fill="black" x="728" y="2em" text-anchor="start">(+utility)</text><text fill="black" x="1030" y="1.8em" text-anchor="end" font-weight="bold" font-style="normal">Evolution</text></g></g><g id="map"><g id="attitudes"></g><g id="methods"></g><g id="fluids"></g><g id="links"></g><g id="evolvingEndLinks"><g id="link_4_5"><line x1="226.6" y1="156.39999999999998" x2="360.5" y2="237.99999999999997" stroke="grey" stroke-width="1"></line></g></g><g id="bothEvolving"><g id="link_5_6"><line x1="360.5" y1="237.99999999999997" x2="515" y2="340" stroke="grey" stroke-width="1"></line></g><g id="link_6_7"><line x1="515" y1="340" x2="669.5" y2="442" stroke="grey" stroke-width="1"></line></g></g><g id="anchorLinks"><g id="link_2_4"><line x1="82.4" y1="61.19999999999998" x2="226.6" y2="156.39999999999998" stroke="grey" stroke-width="1"></line></g></g><g id="anchorNonEvolvedLinks"></g><g id="evolvingToNoneEvolvingEndLinks"></g><g id="evolvedLinks"><g><line x1="618" y1="237.99999999999997" x2="360.5" y2="237.99999999999997" stroke-dasharray="5 5" stroke="red" stroke-width="1" marker-start="url(#arrow)"></line></g><g><line x1="772.5" y1="340" x2="515" y2="340" stroke-dasharray="5 5" stroke="red" stroke-width="1" marker-start="url(#arrow)"></line></g><g><line x1="875.5" y1="442" x2="669.5" y2="442" stroke-dasharray="5 5" stroke="red" stroke-width="1" marker-start="url(#arrow)"></line></g>;</g><g id="anchors"><g is="custom" class="draggable" id="movable_anchor_2" transform="translate(82.4,61.19999999999998)" style="cursor: grab;"><rect x="-15" y="-15" rx="30" ry="30" width="30" height="30" fill-opacity="0"></rect><text is="custom" id="anchor_text_2" data-testid="anchor_text_2" font-weight="14px" font-size="12px" class="label" text-anchor="middle" x="0" y="-10" transform="translate(30, 10)" fill="black"><tspan x="0" dy="0" text-anchor="middle">Wireless</tspan><tspan x="0" dy="15" text-anchor="middle">Connectivity</tspan><tspan x="0" dy="15" text-anchor="middle">Need</tspan></text></g></g><g id="accelerators"><g is="custom" class="draggable" id="movable_accelerator_element_19" transform="translate(535.6,244.79999999999998)" style="cursor: grab;"><rect x="-15" y="-15" rx="30" ry="30" width="30" height="30" fill-opacity="0"></rect><g transform="translate(-25, -25) " id="market_circle_19"><g opacity="0.8" fill="url(#arrowGradient)"><path d="m25.5 6 18 18 -18 18v-9H9a1.5 1.5 0 0 1 -1.5 -1.5V16.5a1.5 1.5 0 0 1 1.5 -1.5h16.5Z"></path></g><path d="m44.561 22.939 -18 -18A1.5 1.5 0 0 0 24 6v7.5H9a3.003 3.003 0 0 0 -3 3v15a3.003 3.003 0 0 0 3 3h15v7.5a1.5 1.5 0 0 0 2.561 1.06l18 -18a1.5 1.5 0 0 0 0 -2.121ZM27 38.379V33a1.5 1.5 0 0 0 -1.5 -1.5H9V16.5h16.5a1.5 1.5 0 0 0 1.5 -1.5V9.621L41.379 24Z"></path></g></g></g><g id="pipelines"></g><g id="elements"><g is="custom" class="draggable" id="movable_element_4" transform="translate(226.6,156.39999999999998)" style="cursor: grab;"><rect x="-15" y="-15" rx="30" ry="30" width="30" height="30" fill-opacity="0"></rect><circle id="element_circle_4" stroke-width="1" r="5" stroke="black" fill="white"></circle></g><g transform="translate(226.6,156.39999999999998)"><g class="draggable" id="movable_rm_element_text_4" transform="translate(5,-10)" style="cursor: grab;"><text is="custom" id="element_text_4" data-testid="element_text_4" font-weight="14px" font-size="12px" class="label" transform="" fill="black">Market</text></g></g><g is="custom" class="draggable" id="movable_element_5ev" transform="translate(618,237.99999999999997)" style="cursor: grab;"><rect x="-15" y="-15" rx="30" ry="30" width="30" height="30" fill-opacity="0"></rect><circle id="element_circle_5ev" stroke-width="1" r="5" stroke="red" fill="white"></circle></g><g transform="translate(618,237.99999999999997)"><g class="draggable" id="movable_rm_element_text_5ev" transform="translate(5,-10)" style="cursor: grab;"><text is="custom" id="element_text_5ev" data-testid="element_text_5ev" font-weight="14px" font-size="12px" class="label" transform="translate(30, 10)" fill="red"><tspan x="0" dy="0" text-anchor="middle">Bluetooth</tspan><tspan x="0" dy="15" text-anchor="middle">Standard</tspan></text></g></g><g is="custom" class="draggable" id="movable_element_6ev" transform="translate(772.5,340)" style="cursor: grab;"><rect x="-15" y="-15" rx="30" ry="30" width="30" height="30" fill-opacity="0"></rect><circle id="element_circle_6ev" stroke-width="1" r="5" stroke="red" fill="white"></circle></g><g transform="translate(772.5,340)"><g class="draggable" id="movable_rm_element_text_6ev" transform="translate(5,-10)" style="cursor: grab;"><text is="custom" id="element_text_6ev" data-testid="element_text_6ev" font-weight="14px" font-size="12px" class="label" transform="translate(30, 10)" fill="red"><tspan x="0" dy="0" text-anchor="middle">Standardized</tspan><tspan x="0" dy="15" text-anchor="middle">Radio</tspan><tspan x="0" dy="15" text-anchor="middle">Tech</tspan></text></g></g><g is="custom" class="draggable" id="movable_element_7ev" transform="translate(875.5,442)" style="cursor: grab;"><rect x="-15" y="-15" rx="30" ry="30" width="30" height="30" fill-opacity="0"></rect><circle id="element_circle_7ev" stroke-width="1" r="5" stroke="red" fill="white"></circle></g><g transform="translate(875.5,442)"><g class="draggable" id="movable_rm_element_text_7ev" transform="translate(5,-10)" style="cursor: grab;"><text is="custom" id="element_text_7ev" data-testid="element_text_7ev" font-weight="14px" font-size="12px" class="label" transform="translate(30, 10)" fill="red"><tspan x="0" dy="0" text-anchor="middle">Commodity</tspan><tspan x="0" dy="15" text-anchor="middle">Silicon</tspan></text></g></g><g is="custom" class="draggable" id="movable_element_5" transform="translate(360.5,237.99999999999997)" style="cursor: grab;"><rect x="-15" y="-15" rx="30" ry="30" width="30" height="30" fill-opacity="0"></rect><circle id="element_circle_5" stroke-width="1" r="5" stroke="black" fill="white"></circle></g><g transform="translate(360.5,237.99999999999997)"><g class="draggable" id="movable_rm_element_text_5" transform="translate(-94.96,-6.7)" style="cursor: grab;"><text is="custom" id="element_text_5" data-testid="element_text_5" font-weight="14px" font-size="12px" class="label" transform="translate(30, 10)" fill="black"><tspan x="0" dy="0" text-anchor="middle">Proprietary</tspan><tspan x="0" dy="15" text-anchor="middle">Protocols</tspan></text></g></g><g is="custom" class="draggable" id="movable_element_6" transform="translate(515,340)" style="cursor: grab;"><rect x="-15" y="-15" rx="30" ry="30" width="30" height="30" fill-opacity="0"></rect><circle id="element_circle_6" stroke-width="1" r="5" stroke="black" fill="white"></circle></g><g transform="translate(515,340)"><g class="draggable" id="movable_rm_element_text_6" transform="translate(-103.74,-10)" style="cursor: grab;"><text is="custom" id="element_text_6" data-testid="element_text_6" font-weight="14px" font-size="12px" class="label" transform="translate(30, 10)" fill="black"><tspan x="0" dy="0" text-anchor="middle">Proprietary</tspan><tspan x="0" dy="15" text-anchor="middle">Radio</tspan><tspan x="0" dy="15" text-anchor="middle">Tech</tspan></text></g></g><g is="custom" class="draggable" id="movable_element_7" transform="translate(669.5,442)" style="cursor: grab;"><rect x="-15" y="-15" rx="30" ry="30" width="30" height="30" fill-opacity="0"></rect><circle id="element_circle_7" stroke-width="1" r="5" stroke="black" fill="white"></circle></g><g transform="translate(669.5,442)"><g class="draggable" id="movable_rm_element_text_7" transform="translate(-120.22,22.95)" style="cursor: grab;"><text is="custom" id="element_text_7" data-testid="element_text_7" font-weight="14px" font-size="12px" class="label" transform="" fill="black">Early Silicon</text></g></g></g><g id="notes"></g><g id="annotations"><g is="custom" class="draggable" id="movable_annotation_element_1" transform="translate(484.09999999999997,237.99999999999997)" style="cursor: grab;"><rect x="-15" y="-15" rx="30" ry="30" width="30" height="30" fill-opacity="0"></rect><circle cx="-0" cy="0" class="draggable" r="15" fill="white" stroke="#595959" stroke-width="2"></circle><text x="-5" y="5" class="label draggable" text-anchor="start">1</text></g><g is="custom" class="draggable" id="movable_annotation_element_2" transform="translate(659.2,340)" style="cursor: grab;"><rect x="-15" y="-15" rx="30" ry="30" width="30" height="30" fill-opacity="0"></rect><circle cx="-0" cy="0" class="draggable" r="15" fill="white" stroke="#595959" stroke-width="2"></circle><text x="-5" y="5" class="label draggable" text-anchor="start">2</text></g><g is="custom" class="draggable" id="movable_annotation_element_3" transform="translate(762.2,442)" style="cursor: grab;"><rect x="-15" y="-15" rx="30" ry="30" width="30" height="30" fill-opacity="0"></rect><circle cx="-0" cy="0" class="draggable" r="15" fill="white" stroke="#595959" stroke-width="2"></circle><text x="-5" y="5" class="label draggable" text-anchor="start">3</text></g><g is="custom" class="draggable" id="movable_annotationsBox" transform="translate(51.5,503.2)" style="cursor: grab;"><rect x="-15" y="-15" rx="30" ry="30" width="30" height="30" fill-opacity="0"></rect><rect x="-17" id="annotationsBoxWrap" y="-17" class="draggable" width="349.93890380859375" height="75.73300170898438" stroke="#595959" stroke-width="1" fill="#FFFFFF"></rect><text id="annotationsBoxTextContainer"><tspan class="label draggable" text-anchor="start" dy="0" x="2" text-decoration="underline">Annotations:</tspan><tspan class="label" text-anchor="start" font-size="11px" dy="18" x="0" fill="black" font-family="Consolas, Lucida Console, monospace"> 1. Co-operation consolidates competing solutions </tspan><tspan class="label" text-anchor="start" font-size="11px" dy="18" x="0" fill="black" font-family="Consolas, Lucida Console, monospace"> 2. Shared development accelerates evolution </tspan><tspan class="label" text-anchor="start" font-size="11px" dy="18" x="0" fill="black" font-family="Consolas, Lucida Console, monospace"> 3. Standardization drives commoditization </tspan></text></g></g></g></g></g></svg>